<?xml version="1.0" encoding="UTF-8" standalone="no"?>
<svg
   width="1em"
   height="1em"
   viewBox="0 0 24 24"
   version="1.1"
   id="svg1"
   sodipodi:docname="volume-mute.svg"
   inkscape:version="1.4.1 (93de688d07, 2025-03-30)"
   xmlns:inkscape="http://www.inkscape.org/namespaces/inkscape"
   xmlns:sodipodi="http://sodipodi.sourceforge.net/DTD/sodipodi-0.dtd"
   xmlns="http://www.w3.org/2000/svg"
   xmlns:svg="http://www.w3.org/2000/svg">
  <defs
     id="defs1" />
  <sodipodi:namedview
     id="namedview1"
     pagecolor="#ffffff"
     bordercolor="#000000"
     borderopacity="0.25"
     inkscape:showpageshadow="2"
     inkscape:pageopacity="0.0"
     inkscape:pagecheckerboard="0"
     inkscape:deskcolor="#d1d1d1"
     inkscape:zoom="256"
     inkscape:cx="-0.49804688"
     inkscape:cy="-0.49804688"
     inkscape:window-width="944"
     inkscape:window-height="1022"
     inkscape:window-x="8"
     inkscape:window-y="46"
     inkscape:window-maximized="1"
     inkscape:current-layer="svg1" />
  <path
     fill="#cba6f7"
     d="M16.775 19.575q-.275.175-.55.325t-.575.275q-.375.175-.762 0t-.538-.575q-.15-.375.038-.737t.562-.538q.175-.075.325-.162t.3-.188L12 14.8v2.775q0 .675-.612.938T10.3 18.3L7 15H4q-.425 0-.712-.288T3 14v-4q0-.425.288-.712T4 9h2.2L2.1 4.9q-.275-.275-.275-.7t.275-.7q.275-.275.7-.275t.7.275l17 17q.275.275.275.7t-.275.7q-.275.275-.7.275t-.7-.275zM19.6 16.8l-1.45-1.45q.425-.775.638-1.625t.212-1.75q0-2.075-1.1-3.787t-2.95-2.563q-.375-.175-.55-.537t-.05-.738q.15-.4.538-.575t.787 0Q18.1 4.85 19.55 7.05T21 11.975q0 1.325-.363 2.55T19.6 16.8m-3.35-3.35L14 11.2V8.85q0-.3.263-.437t.512.012Q15.6 8.95 16.05 10t.45 2q0 .375-.063.738t-.187.712M12 9.2L9.4 6.6l.9-.9q.475-.475 1.088-.213t.612.938z"
     id="path1"
     style="fill:#e69875;fill-opacity:1" />
</svg>
