<?xml version="1.0" encoding="UTF-8" standalone="no"?>
<svg
   width="1em"
   height="1em"
   viewBox="0 0 24 24"
   version="1.1"
   id="svg1"
   sodipodi:docname="volume-up.svg"
   inkscape:version="1.4.1 (93de688d07, 2025-03-30)"
   xmlns:inkscape="http://www.inkscape.org/namespaces/inkscape"
   xmlns:sodipodi="http://sodipodi.sourceforge.net/DTD/sodipodi-0.dtd"
   xmlns="http://www.w3.org/2000/svg"
   xmlns:svg="http://www.w3.org/2000/svg">
  <defs
     id="defs1" />
  <sodipodi:namedview
     id="namedview1"
     pagecolor="#ffffff"
     bordercolor="#000000"
     borderopacity="0.25"
     inkscape:showpageshadow="2"
     inkscape:pageopacity="0.0"
     inkscape:pagecheckerboard="0"
     inkscape:deskcolor="#d1d1d1"
     inkscape:zoom="144"
     inkscape:cx="-0.49652778"
     inkscape:cy="-0.49652778"
     inkscape:window-width="944"
     inkscape:window-height="1022"
     inkscape:window-x="8"
     inkscape:window-y="46"
     inkscape:window-maximized="1"
     inkscape:current-layer="svg1" />
  <path
     fill="#cba6f7"
     d="M9 15H6q-.425 0-.712-.288T5 14v-4q0-.425.288-.712T6 9h3l3.3-3.3q.475-.475 1.088-.213t.612.938v11.15q0 .675-.612.938T12.3 18.3zm9.5-3q0 1.05-.475 1.988t-1.25 1.537q-.25.15-.512.013T16 15.1V8.85q0-.3.263-.437t.512.012q.775.625 1.25 1.575t.475 2"
     id="path1"
     style="fill:#dbbc7f;fill-opacity:1" />
</svg>
